<svg width="27" height="28" viewBox="0 0 27 28" fill="none" xmlns="http://www.w3.org/2000/svg">
<g id="Standard Collection 27">
<path id="Vector" d="M23.7766 10.6757L23.7603 10.6594C23.759 10.6585 23.758 10.6573 23.7573 10.6559L13.6072 0.505493L3.4571 10.6556C3.45593 10.6568 3.45528 10.6584 3.4541 10.6592L3.43735 10.6754C1.88527 12.2362 0.899424 14.271 0.636545 16.4565C0.373665 18.6419 0.848835 20.8525 1.98651 22.7369C3.12419 24.6212 4.85909 26.0713 6.91543 26.8563C8.97175 27.6414 11.2315 27.7166 13.3354 27.0698C13.5125 27.0157 13.7017 27.0157 13.8788 27.0698C15.9826 27.7164 18.2422 27.6411 20.2984 26.856C22.3546 26.0708 24.0893 24.6209 25.2269 22.7366C26.3645 20.8523 26.8397 18.6419 26.577 16.4566C26.3142 14.2713 25.3285 12.2365 23.7766 10.6757ZM7.06633 17.369C7.01692 17.4184 6.97774 17.4771 6.95101 17.5416C6.92428 17.6061 6.91051 17.6753 6.91053 17.7452C6.92859 19.5366 7.43487 21.2892 8.37489 22.8143C8.39624 22.8489 8.40611 22.8894 8.40308 22.9299C8.40005 22.9704 8.38429 23.0089 8.35802 23.04C8.33177 23.0711 8.29637 23.093 8.2569 23.1027C8.21742 23.1123 8.17589 23.1093 8.13825 23.094C7.43157 22.7968 6.78959 22.3646 6.2482 21.8219C5.13872 20.7122 4.51499 19.2075 4.51398 17.6384C4.51297 16.0692 5.13478 14.5637 6.24284 13.4526L13.6072 6.089L20.9711 13.4526C22.0794 14.5635 22.7014 16.069 22.7003 17.6384C22.6994 19.2075 22.0756 20.7122 20.966 21.8219C20.4246 22.3646 19.7827 22.7968 19.0761 23.094C19.0384 23.1093 18.9968 23.1123 18.9574 23.1027C18.9179 23.093 18.8825 23.0709 18.8562 23.04C18.83 23.0089 18.8141 22.9704 18.8111 22.9298C18.8081 22.8893 18.8179 22.8488 18.8393 22.8142C19.7795 21.2892 20.2861 19.5366 20.3044 17.7452C20.3044 17.6753 20.2905 17.6061 20.2636 17.5415C20.2368 17.4769 20.1975 17.4183 20.1479 17.3689L16.6647 13.6743C16.63 13.6453 16.5864 13.6295 16.5411 13.6295C16.4961 13.6295 16.4523 13.6453 16.4177 13.6743C16.383 13.7031 16.3596 13.7434 16.3515 13.7878C16.3434 13.8322 16.3511 13.878 16.3734 13.9173C17.7262 16.3654 16.5629 19.8817 14.6229 21.8219L14.6127 21.8322C14.345 22.097 13.9835 22.2455 13.6069 22.2454C13.2302 22.2453 12.8689 22.0965 12.6013 21.8315L12.5919 21.8219C10.6512 19.8817 9.48854 16.3658 10.8416 13.9178C10.8638 13.8785 10.8716 13.8328 10.8635 13.7883C10.8554 13.7439 10.832 13.7037 10.7973 13.6748C10.7626 13.6459 10.7189 13.63 10.6738 13.63C10.6286 13.63 10.5849 13.6459 10.5502 13.6748L7.06633 17.369Z" fill="#121212"/>
</g>
</svg>
